<?xml version="1.0" encoding="UTF-8" standalone="no"?>
<!-- Created with Inkscape (http://www.inkscape.org/) -->

<svg
   xmlns:dc="http://purl.org/dc/elements/1.1/"
   xmlns:cc="http://creativecommons.org/ns#"
   xmlns:rdf="http://www.w3.org/1999/02/22-rdf-syntax-ns#"
   xmlns:svg="http://www.w3.org/2000/svg"
   xmlns="http://www.w3.org/2000/svg"
   xmlns:sodipodi="http://sodipodi.sourceforge.net/DTD/sodipodi-0.dtd"
   xmlns:inkscape="http://www.inkscape.org/namespaces/inkscape"
   version="1.1"
   width="1500"
   height="1235.3545"
   id="svg2"
   inkscape:version="0.48.3.1 r9886"
   sodipodi:docname="duck.svg">
  <sodipodi:namedview
     pagecolor="#ffffff"
     bordercolor="#666666"
     borderopacity="1"
     objecttolerance="10"
     gridtolerance="10"
     guidetolerance="10"
     inkscape:pageopacity="0"
     inkscape:pageshadow="2"
     inkscape:window-width="1560"
     inkscape:window-height="903"
     id="namedview2999"
     showgrid="false"
     fit-margin-top="0"
     fit-margin-left="0"
     fit-margin-right="0"
     fit-margin-bottom="0"
     inkscape:zoom="0.19533333"
     inkscape:cx="-2.5597278"
     inkscape:cy="639.18693"
     inkscape:window-x="0"
     inkscape:window-y="28"
     inkscape:window-maximized="0"
     inkscape:current-layer="svg2" />
  <defs
     id="defs4">
    <filter
       x="-0.028707527"
       y="-0.27733523"
       width="1.0574151"
       height="1.5546705"
       color-interpolation-filters="sRGB"
       id="filter3822">
      <feGaussianBlur
         id="feGaussianBlur3824"
         stdDeviation="5.7584646" />
    </filter>
    <filter
       inkscape:collect="always"
       id="filter3813"
       x="-0.071769968"
       width="1.1435399"
       y="-0.69320786"
       height="2.3864157"
       color-interpolation-filters="sRGB">
      <feGaussianBlur
         inkscape:collect="always"
         stdDeviation="14.396392"
         id="feGaussianBlur3815" />
    </filter>
  </defs>
  <metadata
     id="metadata7">
    <rdf:RDF>
      <cc:Work
         rdf:about="">
        <dc:format>image/svg+xml</dc:format>
        <dc:type
           rdf:resource="http://purl.org/dc/dcmitype/StillImage" />
        <dc:title />
      </cc:Work>
    </rdf:RDF>
  </metadata>
  <g
     transform="translate(-145.81024,496.88492)"
     id="layer8"
     style="display:inline">
    <path
       d="m 1429.481,-496.88492 c -97.3668,216.86255 -315.9587,41.11624 -423.9473,186.28138 32.7506,-54.87951 48.6661,-44.6308 77.8762,-72.9557 -148.7058,-5.31091 -208.14005,20.95528 -226.88291,48.81095 -7.96637,-15.0476 -18.85803,-5.98551 -7.67795,-27.61101 -216.75157,75.24076 -143.88454,149.06997 -334.596,284.157001 C 474.85423,-50.294847 470.14548,26.056312 495.3222,65.853573 417.62564,199.72699 324.30081,247.90882 260.17791,260.93192 c -88.89137,-79.42123 -241.059406,62.59586 83.2438,132.51584 41.2686,9.54757 70.002,24.30308 153.65094,16.07824 66.36781,41.06572 133.8164,87.18636 222.95596,82.7086 8.16186,-3.4583 19.68935,-7.17414 26.73696,-11.15104 114.23089,77.88205 218.32823,-98.57106 305.65473,-2.51189 -5.3109,-22.12882 -17.7095,-48.71896 -28.3314,-57.57047 47.8479,-12.19055 99.9864,-41.86539 161.8846,-36.95402 138.5208,10.99102 246.8412,-71.91441 271.839,-272.81147 262.0054,-78.778623 215.9811,-386.83169 69.0456,-411.61598 165.5237,282.363896 -231.9073,268.181409 -40.7142,45.12281 -149.5909,-22.12883 -146.1171,130.13858 -185.8722,106.25903 -52.2144,-31.3634 168.1561,-175.2816 129.2093,-347.88649 z"
       id="path3051"
       style="fill:#1a1a1a;fill-opacity:1;stroke:none;display:inline"
       inkscape:connector-curvature="0" />
    <path
       d="m 757.27647,638.20038 a 240.70891,24.916264 0 1 1 -481.41781,0 240.70891,24.916264 0 1 1 481.41781,0 z"
       transform="matrix(2.5204964,0,0,2.0746119,-419.63182,-708.93128)"
       id="path3869"
       style="fill:#000000;fill-opacity:0.41040464;stroke:none;filter:url(#filter3813)"
       inkscape:connector-curvature="0" />
    <path
       d="m 733.26948,54.256024 c -19.48782,7.59795 -55.13567,43.663811 -61.99367,57.361996 3.37836,-8.28755 -6.7294,-35.631459 -21.3588,-36.462622 17.73005,-5.86705 41.35401,-24.334224 55.7594,-45.203786 12.08656,3.091787 24.50129,6.658137 27.59307,24.304412 z"
       id="path4064"
       style="fill:#ffffff;fill-opacity:0.99421967;stroke:none;display:inline"
       inkscape:connector-curvature="0" />
  </g>
  <g
     transform="translate(-145.81024,496.88492)"
     id="layer5"
     style="display:inline">
    <path
       d="m 362.77967,580.40467 c -47.24985,114.54747 -175.17914,189.60682 -237.45064,188.99674 3.60525,3.37646 8.63649,15.66486 9.70559,23.25495 -104.723023,-101.60082 -197.65982,11.24484 16.28581,69.48138 79.9206,21.7546 191.73016,-4.21136 278.36707,-66.16899 98.05512,-70.12328 147.02585,-13.19399 145.46875,41.90625 -1.60126,56.66261 -65.58872,121.2853 -209.15625,23.96875 -15.87877,-10.76335 -79.37713,24.09777 -126.0625,18.625 25.78666,14.22204 66.52564,18.53372 89.15625,12.625 -6.2558,-2.90526 -6.98916,-8.95299 -7.1875,-14.28125 0,0 33.91553,8.77464 54.40625,21.59375 49.03879,30.67887 115.4734,82.2038 185.25,69.96875 118.76342,-20.82468 139.47691,-231.21234 3.53125,-286.09375 -27.09271,-10.93738 -97.84375,19.375 -97.84375,19.375 l 13.09375,-15.46875 4.875,-19.625 c -23.64035,-14.30679 -43.35873,-33.01556 -33.1875,-85.46875 l -20.15625,-7.0625 c -19.31096,12.44335 -41.5571,21.28967 -69.09533,4.37342 z m 28.06408,45.40783 c 24.45938,-0.61497 -11.98959,92.6129 -55,101.5625 45.23802,-46.78454 43.10374,-68.5281 18.9375,-75.0625 17.59013,-18.79605 29.21387,-26.32781 36.0625,-26.5 z"
       transform="translate(145.81024,-496.88492)"
       id="path3858"
       style="fill:#ff6d0b;fill-opacity:1;stroke:none"
       inkscape:connector-curvature="0" />
    <path
       d="m 499.57279,354.96707 c 42.10742,-5.10557 111.48177,-86.42278 174.82802,-75.22268 26.10818,16.97032 9.59348,54.52028 1.10831,63.65815 -18.92845,-17.62304 -92.03138,-16.97032 -112.91793,-9.13786 28.38025,-1.42316 98.91032,2.96837 106.39087,17.623 7.83245,18.27573 3.59636,31.79839 -2.9307,46.15788 -93.02341,14.1506 -120.23214,-44.82439 -166.47857,-43.07849 z"
       id="path3866"
       style="fill:#ffffff;fill-opacity:1;stroke:none"
       inkscape:connector-curvature="0" />
  </g>
  <g
     transform="translate(-145.81024,496.88492)"
     id="layer3"
     style="display:inline">
    <path
       d="m 1414.7015,-434.14751 c -118.366,165.22761 -315.3018,7.53814 -412.4826,160.29171 -1.0126,-18.66453 -24.29013,-6.60897 -22.45581,-29.39704 18.83913,-32.06342 40.32321,-56.95175 53.60031,-64.22971 -23.4096,-2.55175 -164.94187,21.9122 -169.82863,66.41858 140.83253,-3.92078 277.06303,123.74237 299.61083,232.70358 -74.313,-125.41195 -260.01232,-256.21676 -401.69205,-184.86175 13.77797,-20.64119 52.46954,-40.85842 81.96849,-46.63094 9.41713,-20.67192 -18.57702,-18.5536 -9.90603,-29.50491 -145.97351,27.52001 -152.94089,182.9816 -297.03041,260.815602 -60.32015,32.583625 -37.27871,157.562611 29.88738,137.702374 -17.9304,-30.235524 -3.86987,-68.1157606 15.68925,-79.937398 -33.71429,127.467722 81.87609,79.926748 125.70852,6.548 C 791.85269,-144.98891 921.41104,-86.51166 861.55136,-3.1272745 859.34071,-104.35853 735.51887,-39.455166 717.81965,12.6268 709.08501,38.329487 782.44641,14.36 801.97109,-22.122949 792.34913,4.7696878 781.56328,20.138412 766.05437,31.557637 785.23035,22.251675 827.74516,-1.4232121 893.77267,18.9803 801.32421,-6.4210744 683.52269,95.339285 647.33941,184.24229 c 54.04391,-39.10143 82.50216,-20.02751 116.82142,10.17548 80.46509,70.81403 100.4266,208.10438 0.071,277.08417 82.47345,37.80123 178.45312,-74.05624 253.17467,-30.40294 -24.39959,-30.87234 -45.57382,-39.69632 -71.675,-44.13637 9.86533,-12.04429 53.49149,-10.12689 69.4338,8.01053 25.2696,-12.60223 74.7258,-31.04895 149.7187,-44.42679 -68.8937,10.13261 -111.5605,-14.92714 -137.4243,-34.88513 233.7629,101.06756 229.4556,-211.11031 150.8235,-364.126217 122.2346,154.455147 77.1943,373.814997 32.054,394.445217 261.5576,-14.47294 152.3256,-256.197968 294.7329,-351.3277272 -57.0395,90.9298102 54.2308,51.9665362 99.0626,-39.6121188 32.9455,-67.298234 30.6233,-164.497234 -37.7433,-222.388974 145.638,271.967127 -312.3532,249.9782103 -113.1774,20.36744 -84.4215,4.82897 -93.2068,103.82351 -136.4778,127.40033 -28,15.256183 -57.3971,13.217255 -79.2242,10.891718 32.6656,-8.366038 65.4733,-30.562378 51.9948,-35.527728 -79.7535,-29.38038 85.1574,-146.64759 125.1967,-299.93069 z M 928.34633,26.816137 C 1018.9843,29.3277 1131.6983,89.76471 1045.9784,284.82857 1086.9966,81.536673 989.08713,40.489924 928.34633,26.816137 z"
       id="path3830"
       style="fill:#ffff00;fill-opacity:1;stroke:none"
       inkscape:connector-curvature="0" />
  </g>
</svg>
